# xmcd CD database file
#
# Track frame offsets:
#	150
#	25300
#	46527
#	67850
#	87677
#	107765
#	129092
#	151662
#	169280
#	184235
#
# Disc length: 2733 seconds
#
# Revision: 0
# Processed by: cddbd v1.5.1PL0 Copyright (c) Steve Scherf et al.
# Submitted via: CDex 1.51
#
DISCID=750aab0a
DTITLE=オフコース - as close as possible
DYEAR=1987
DGENRE=Ballad
TTITLE0=もっと近くに
TTITLE1=IT's ALL RIGHT
TTITLE2=ガラスの破片
TTITLE3=白い渚で
TTITLE4=Tiny Pretty Girl
TTITLE5=Love Everlasting
TTITLE6=I'm a man
TTITLE7=心の扉
TTITLE8=SHE'S GONE
TTITLE9=嘘と噂
EXTD=YEAR: 1987
EXTT0=
EXTT1=
EXTT2=
EXTT3=
EXTT4=
EXTT5=
EXTT6=
EXTT7=
EXTT8=
EXTT9=
PLAYORDER=
